<svg width="12" height="10" viewBox="0 0 12 10" fill="none" xmlns="http://www.w3.org/2000/svg">
<path d="M6.22585 2.79016L2.62515 6.06961V9.60909C2.62515 9.70074 2.65807 9.78863 2.71667 9.85343C2.77527 9.91823 2.85475 9.95464 2.93762 9.95464L5.12613 9.94837C5.20873 9.94792 5.28781 9.91131 5.34607 9.84656C5.40434 9.7818 5.43704 9.69417 5.43704 9.60283V7.53581C5.43704 7.44417 5.46996 7.35628 5.52856 7.29147C5.58716 7.22667 5.66664 7.19026 5.74952 7.19026H6.99942C7.08229 7.19026 7.16177 7.22667 7.22037 7.29147C7.27897 7.35628 7.3119 7.44417 7.3119 7.53581V9.60132C7.31177 9.64678 7.31976 9.69183 7.3354 9.73388C7.35105 9.77593 7.37404 9.81415 7.40307 9.84635C7.4321 9.87855 7.46659 9.9041 7.50457 9.92154C7.54254 9.93897 7.58326 9.94794 7.62437 9.94794L9.81209 9.95464C9.89497 9.95464 9.97445 9.91823 10.033 9.85343C10.0916 9.78863 10.1246 9.70074 10.1246 9.60909V6.06724L6.52465 2.79016C6.48233 2.75244 6.42961 2.73186 6.37525 2.73186C6.32089 2.73186 6.26817 2.75244 6.22585 2.79016ZM11.9135 5.01915L10.2808 3.53092V0.539571C10.2808 0.470837 10.2561 0.404919 10.2122 0.356317C10.1682 0.307715 10.1086 0.280411 10.0465 0.280411H8.95279C8.89063 0.280411 8.83102 0.307715 8.78707 0.356317C8.74312 0.404919 8.71843 0.470837 8.71843 0.539571V2.1077L6.96993 0.516894C6.80213 0.364201 6.59158 0.280716 6.37427 0.280716C6.15697 0.280716 5.94641 0.364201 5.77862 0.516894L0.835052 5.01915C0.811321 5.04084 0.791687 5.06749 0.777272 5.09757C0.762858 5.12766 0.753945 5.16059 0.751043 5.19448C0.748141 5.22838 0.751307 5.26257 0.76036 5.29511C0.769413 5.32766 0.784176 5.3579 0.803804 5.38413L1.30181 6.05363C1.32139 6.07995 1.34546 6.10175 1.37267 6.11776C1.39987 6.13378 1.42966 6.14371 1.46033 6.14698C1.49101 6.15025 1.52197 6.1468 1.55143 6.13682C1.5809 6.12684 1.6083 6.11054 1.63206 6.08883L6.22585 1.9047C6.26817 1.86697 6.32089 1.8464 6.37525 1.8464C6.42961 1.8464 6.48233 1.86697 6.52465 1.9047L11.1186 6.08883C11.1424 6.11054 11.1697 6.12686 11.1991 6.13688C11.2286 6.14689 11.2595 6.15039 11.2901 6.14718C11.3208 6.14397 11.3506 6.13411 11.3778 6.11817C11.405 6.10223 11.4291 6.08052 11.4487 6.05428L11.9467 5.38478C11.9663 5.3584 11.981 5.328 11.99 5.29531C11.9989 5.26263 12.0019 5.22831 11.9988 5.19433C11.9957 5.16036 11.9866 5.12739 11.972 5.09733C11.9573 5.06726 11.9375 5.04069 11.9135 5.01915Z" fill="#BCA487"/>
</svg>
