<svg width="10" height="10" viewBox="0 0 10 10" fill="none" xmlns="http://www.w3.org/2000/svg">
<path d="M2.66796 2.71078C2.4718 2.76622 2.29217 2.8688 2.14474 3.00956C1.9973 3.15032 1.88652 3.32501 1.82206 3.51839L0 8.98438L0.286913 9.27129L3.21873 6.33947C3.16034 6.21721 3.12498 6.08205 3.12498 5.93752C3.12498 5.41975 3.54471 5.00002 4.06248 5.00002C4.58025 5.00002 4.99998 5.41975 4.99998 5.93752C4.99998 6.45529 4.58025 6.87502 4.06248 6.87502C3.91795 6.87502 3.78279 6.83966 3.66053 6.78127L0.728707 9.71309L1.01562 10L6.48161 8.17794C6.67499 8.11348 6.84968 8.0027 6.99044 7.85526C7.13121 7.70783 7.23378 7.5282 7.28922 7.33204L8.12496 4.37503L5.62497 1.87504L2.66796 2.71078ZM9.72534 1.44867L8.55133 0.274657C8.18512 -0.0915523 7.59117 -0.0915523 7.22497 0.274657L6.12048 1.37914L8.62086 3.87952L9.72534 2.77504C10.0916 2.40883 10.0916 1.81508 9.72534 1.44867Z" fill="#BCA487"/>
</svg>
