<svg width="12" height="12" viewBox="0 0 12 12" fill="none" xmlns="http://www.w3.org/2000/svg">
<path d="M11.847 9.6524L9.65617 7.47859C9.55728 7.38048 9.42324 7.32597 9.28261 7.32597H8.92443C9.53092 6.55631 9.89129 5.58823 9.89129 4.53512C9.89129 2.0299 7.84549 0 5.32065 0C2.7958 0 0.75 2.0299 0.75 4.53512C0.75 7.04034 2.7958 9.07025 5.32065 9.07025C6.382 9.07025 7.35766 8.71267 8.13335 8.1109V8.46629C8.13335 8.60583 8.18829 8.73884 8.28717 8.83695L10.478 11.0108C10.6846 11.2157 11.0186 11.2157 11.2229 11.0108L11.8448 10.3937C12.0514 10.1888 12.0514 9.85736 11.847 9.6524ZM5.32065 7.32597C3.76707 7.32597 2.50794 6.07881 2.50794 4.53512C2.50794 2.99362 3.76487 1.74428 5.32065 1.74428C6.87423 1.74428 8.13335 2.99144 8.13335 4.53512C8.13335 6.07663 6.87642 7.32597 5.32065 7.32597Z" fill="#6A5E4B"/>
</svg>
